Coordinates
version=1
nRows=5
nColumns=107
inDegrees=yes

Units are S.I. units (second, meters, Newtons, ...)
If the header above contains a line with 'inDegrees', this indicates whether rotational values are in degrees (yes) or radians (no).

endheader
time	sternoclavicular_r2	sternoclavicular_r3	unrotscap_r3	unrotscap_r2	acromioclavicular_r2	acromioclavicular_r3	acromioclavicular_r1	unrothum_r1	unrothum_r3	unrothum_r2	elv_angle	shoulder_elv	shoulder1_r2	shoulder_rot	elbow_flexion	pro_sup	deviation	flexion	proximal_distal_r1	proximal_distal_r3	cmc_flexion	cmc_abduction	mp_flexion	ip_flexion	mcp2_flexion	mcp2_abduction	pm2_flexion	md2_flexion	mcp3_flexion	mcp3_abduction	pm3_flexion	md3_flexion	mcp4_flexion	mcp4_abduction	pm4_flexion	md4_flexion	mcp5_flexion	mcp5_abduction	pm5_flexion	md5_flexion	bicpt_tx	bicpt_ty	bicpt_tz	bicpt2_tx	bicpt2_ty	bicpt2_tz	ptpt_tx	ptpt_ty	ptpt_tz	FCUpt_tx	FCUpt_ty	FCUpt_tz	EDCpt_tx	EDCpt_ty	EDCpt_tz	APLpt_tx	APLpt_ty	APLpt_tz	FPLpt_tx	FPLpt_ty	FPLpt_tz	FPLpt2_tx	FPLpt2_ty	FPLpt2_tz	PEC1pt2_tx	PEC1pt2_ty	PEC1pt2_tz	PEC1pt3_tx	PEC1pt3_ty	PEC1pt3_tz	PEC2pt2_tx	PEC2pt2_ty	PEC2pt2_tz	PEC2pt3_tx	PEC2pt3_ty	PEC2pt3_tz	PEC3pt2_tx	PEC3pt2_ty	PEC3pt2_tz	PEC3pt3_tx	PEC3pt3_ty	PEC3pt3_tz	DELT2pt2a_tx	DELT2pt2a_ty	DELT2pt2a_tz	DELT2pt2_tx	DELT2pt2_ty	DELT2pt2_tz	LAT1pt2_tx	LAT1pt2_ty	LAT1pt2_tz	LAT1pt3_tx	LAT1pt3_ty	LAT1pt3_tz	LAT2pt2_tx	LAT2pt2_ty	LAT2pt2_tz	LAT2pt3_tx	LAT2pt3_ty	LAT2pt3_tz	LAT3pt2_tx	LAT3pt2_ty	LAT3pt2_tz	LAT3pt3_tx	LAT3pt3_ty	LAT3pt3_tz
      0.00000000	     -0.31004365	      0.13131986	     -0.13131986	      0.31004365	     -0.06277753	      0.50734593	      0.22804850	     -0.22804850	     -0.50734593	      0.06277753	    103.06349390	     73.40558924	     -1.79879731	    -42.96511991	     30.80026269	     82.68233403	      0.28718106	     -0.65288889	      0.32224043	     -0.32644444	     37.29404380	    -16.22897421	     -1.27491934	      4.74590146	     89.62558120	     12.44757175	     76.93533934	     71.80714612	     93.31501754	      1.93441417	     82.43539221	     48.90432533	     85.41313412	    -12.45607730	    101.95161636	     49.31509951	     84.87337621	    -13.97219725	    103.09375965	      5.40520752	      0.00091878	     -0.03113018	     -0.00486862	      0.01457027	     -0.01856704	     -0.00163648	      0.00144071	     -0.06885037	     -0.00671051	      0.01235858	     -0.18234852	     -0.00000344	     -0.00992186	      0.00339765	     -0.00065367	      0.00031103	      0.00012441	      0.00062206	      0.00039812	      0.00119435	      0.00067182	     -0.00001260	     -0.00015966	     -0.00019159	      0.00240607	      0.00844165	      0.00587245	     -0.00787072	      0.01900391	     -0.01802517	      0.00240607	      0.00844165	      0.00587245	      0.00053015	      0.01761736	     -0.00925727	      0.00384201	      0.00469429	      0.01570290	      0.00000000	      0.00720272	      0.00000000	     -0.00689198	     -0.03184990	     -0.00593554	      0.02350137	     -0.00121960	     -0.01470147	     -0.00085640	      0.01435488	     -0.00587245	      0.00236529	      0.02071671	     -0.01712799	     -0.00575011	      0.01243818	     -0.00526074	     -0.01198959	      0.02626291	     -0.02940304	     -0.02251107	      0.01390629	     -0.00705510	     -0.01492582	      0.03034100	     -0.03674361
      0.03333333	     -0.31403758	      0.13301150	     -0.13301150	      0.31403758	     -0.06358622	      0.51388147	      0.23098619	     -0.23098619	     -0.51388147	      0.06358622	    101.62980807	     74.35118759	     -1.77377477	    -36.92028375	     30.47711054	     78.93805974	      0.35027342	     -0.54318990	      0.37494704	     -0.27159495	     37.66223432	    -16.65928345	     -2.07501322	      5.44662575	     89.58111485	     12.48860804	     79.00232551	     72.26941303	     93.54158314	      1.85588878	     82.78594975	     50.55776976	     86.49684344	    -12.60831006	    100.05411115	     45.46938843	     85.08744381	    -13.98740708	    102.05800787	      5.43130858	      0.00090809	     -0.03109314	     -0.00486265	      0.01491313	     -0.01847926	     -0.00225060	      0.00171737	     -0.06867148	     -0.00640888	      0.01193441	     -0.18246984	     -0.00009203	     -0.00947255	      0.00319814	     -0.00054391	      0.00030875	      0.00012350	      0.00061749	      0.00039519	      0.00118558	      0.00066689	     -0.00001244	     -0.00015354	     -0.00018424	      0.00243707	      0.00855039	      0.00594810	     -0.00797211	      0.01924871	     -0.01825736	      0.00243707	      0.00855039	      0.00594810	      0.00053698	      0.01784430	     -0.00937652	      0.00387860	      0.00475477	      0.01579564	      0.00000000	      0.00739068	      0.00000000	     -0.00698076	     -0.03226018	     -0.00609168	      0.02162570	     -0.00099953	     -0.01113934	     -0.00086743	      0.01453980	     -0.00594810	      0.00239576	      0.02098358	     -0.01734863	     -0.00582418	      0.01259841	     -0.00532851	     -0.01214404	      0.02660123	     -0.02978181	     -0.02280105	      0.01408543	     -0.00714598	     -0.01511809	      0.03073185	     -0.03721693
      0.06666667	     -0.31314093	      0.13263172	     -0.13263172	      0.31314093	     -0.06340467	      0.51241422	      0.23032667	     -0.23032667	     -0.51241422	      0.06340467	    101.97600249	     74.13889747	     -1.77981700	    -38.39994561	     30.57230404	     80.36073411	      0.33947971	     -0.55590072	      0.36639245	     -0.27795036	     37.90010198	    -16.83463261	     -1.85143722	      4.72586601	     90.00103443	     12.53086830	     79.76482588	     74.02220136	     93.49526170	      1.94843936	     82.83566107	     52.30484693	     87.14775789	    -12.64020812	     98.22528748	     42.91118115	     85.13392425	    -13.98198449	    100.59867495	      5.46238722	      0.00091124	     -0.03110405	     -0.00486441	      0.01478645	     -0.01850512	     -0.00201946	      0.00161225	     -0.06873945	     -0.00652349	      0.01209509	     -0.18242419	     -0.00005955	     -0.00964327	      0.00327346	     -0.00058476	      0.00030997	      0.00012399	      0.00061994	      0.00039676	      0.00119029	      0.00066954	     -0.00001232	     -0.00014949	     -0.00017939	      0.00243011	      0.00852598	      0.00593112	     -0.00794934	      0.01919375	     -0.01820523	      0.00243011	      0.00852598	      0.00593112	      0.00053545	      0.01779335	     -0.00934975	      0.00387041	      0.00474119	      0.01577501	      0.00000000	      0.00734826	      0.00000000	     -0.00696082	     -0.03216807	     -0.00605645	      0.02212984	     -0.00105279	     -0.01198192	     -0.00086495	      0.01449829	     -0.00593112	      0.00238892	      0.02092366	     -0.01729909	     -0.00580755	      0.01256243	     -0.00531329	     -0.01210936	      0.02652527	     -0.02969677	     -0.02273595	      0.01404521	     -0.00712558	     -0.01507492	      0.03064410	     -0.03711067
      0.10000000	     -0.31278387	      0.13248048	     -0.13248048	      0.31278387	     -0.06333237	      0.51182994	      0.23006403	     -0.23006403	     -0.51182994	      0.06333237	    102.16801201	     74.05436041	     -1.78316820	    -39.13192303	     30.51661226	     80.83672386	      0.33012876	     -0.57797374	      0.35882622	     -0.28898687	     38.01617161	    -16.90943136	     -1.68813132	      4.08912480	     90.15756173	     12.52263393	     80.34679330	     75.68982310	     93.65016259	      1.96653190	     83.03138740	     53.81546177	     87.58158063	    -12.68888597	     97.09738461	     41.07084176	     85.07362012	    -13.98185154	    100.38157509	      5.44177365	      0.00090939	     -0.03109767	     -0.00486338	      0.01474313	     -0.01848999	     -0.00194155	      0.00157708	     -0.06876219	     -0.00656183	      0.01214898	     -0.18240880	     -0.00004838	     -0.00970038	      0.00329879	     -0.00059865	      0.00031159	      0.00012464	      0.00062319	      0.00039884	      0.00119652	      0.00067304	     -0.00001225	     -0.00014750	     -0.00017700	      0.00242734	      0.00851626	      0.00592435	     -0.00794028	      0.01917187	     -0.01818447	      0.00242734	      0.00851626	      0.00592435	      0.00053484	      0.01777306	     -0.00933909	      0.00386715	      0.00473578	      0.01576676	      0.00000000	      0.00733141	      0.00000000	     -0.00695289	     -0.03213139	     -0.00604245	      0.02236848	     -0.00107930	     -0.01240612	     -0.00086397	      0.01448175	     -0.00592435	      0.00238620	      0.02089980	     -0.01727937	     -0.00580093	      0.01254811	     -0.00530723	     -0.01209556	      0.02649503	     -0.02966291	     -0.02271002	      0.01402920	     -0.00711745	     -0.01505773	      0.03060916	     -0.03706835
      0.13333333	     -0.31462632	      0.13326086	     -0.13326086	      0.31462632	     -0.06370543	      0.51484488	      0.23141923	     -0.23141923	     -0.51484488	      0.06370543	    101.59270689	     74.49057865	     -1.77312723	    -36.56609021	     30.26669398	     78.72449886	      0.34709384	     -0.55777449	      0.37244677	     -0.27888724	     38.03737746	    -16.86063689	     -2.43664613	      5.13781580	     89.95893048	     12.44275747	     81.20051101	     75.25539789	     93.65218852	      1.89400611	     83.35212170	     54.29385659	     88.03785600	    -12.74131702	     96.77747404	     38.64441420	     85.21436179	    -13.98525417	    100.35954803	      5.43364906	      0.00090113	     -0.03106903	     -0.00485877	      0.01493143	     -0.01842210	     -0.00228485	      0.00173315	     -0.06866127	     -0.00639168	      0.01191039	     -0.18247660	     -0.00009667	     -0.00944692	      0.00318693	     -0.00053795	      0.00031014	      0.00012406	      0.00062029	      0.00039698	      0.00119095	      0.00066991	     -0.00001224	     -0.00014714	     -0.00017657	      0.00244164	      0.00856642	      0.00595925	     -0.00798705	      0.01928480	     -0.01829159	      0.00244164	      0.00856642	      0.00595925	      0.00053799	      0.01787775	     -0.00939410	      0.00388396	      0.00476368	      0.01580913	      0.00000000	      0.00741859	      0.00000000	     -0.00699384	     -0.03232066	     -0.00611487	      0.02150044	     -0.00098685	     -0.01094090	     -0.00086906	      0.01456706	     -0.00595925	      0.00240025	      0.02102291	     -0.01738115	     -0.00583510	      0.01262203	     -0.00533850	     -0.01216680	      0.02665110	     -0.02983764	     -0.02284380	      0.01411184	     -0.00715938	     -0.01514643	      0.03078947	     -0.03728670
